<?xml version="1.0" encoding="UTF-8" standalone="no"?>
<!DOCTYPE svg PUBLIC "-//W3C//DTD SVG 1.1//EN"
 "http://www.w3.org/Graphics/SVG/1.1/DTD/svg11.dtd">
<!-- Generated by graphviz version 2.50.0 (20211204.2007)
 -->
<!-- Title: BBN Pages: 1 -->
<svg width="282pt" height="344pt"
 viewBox="0.00 0.00 281.63 344.20" xmlns="http://www.w3.org/2000/svg" xmlns:xlink="http://www.w3.org/1999/xlink">
<g id="graph0" class="graph" transform="scale(1 1) rotate(0) translate(4 340.2)">
<title>BBN</title>
<polygon fill="white" stroke="transparent" points="-4,4 -4,-340.2 277.63,-340.2 277.63,4 -4,4"/>
<text text-anchor="middle" x="136.82" y="-321" font-family="Times,serif" font-size="14.00">Rocky Shore BBN</text>
<!-- Dogwhelk -->
<g id="node1" class="node">
<title>Dogwhelk</title>
<ellipse fill="lightyellow" stroke="black" cx="61.36" cy="-223.68" rx="47.39" ry="18"/>
<text text-anchor="middle" x="61.36" y="-219.98" font-family="Times,serif" font-size="14.00">Dogwhelk</text>
</g>
<!-- Topshell -->
<g id="node2" class="node">
<title>Topshell</title>
<ellipse fill="lightyellow" stroke="black" cx="120.59" cy="-170.22" rx="41.69" ry="18"/>
<text text-anchor="middle" x="120.59" y="-166.52" font-family="Times,serif" font-size="14.00">Topshell</text>
</g>
<!-- Dogwhelk&#45;&gt;Topshell -->
<g id="edge1" class="edge">
<title>Dogwhelk&#45;&gt;Topshell</title>
<path fill="none" stroke="red" d="M79.78,-207.06C84.5,-202.79 89.67,-198.13 94.7,-193.59"/>
<polygon fill="red" stroke="red" points="97.31,-195.95 102.39,-186.65 92.62,-190.75 97.31,-195.95"/>
<text text-anchor="middle" x="81.24" y="-189.12" font-family="Times,serif" font-size="14.00">&#45;1</text>
</g>
<!-- Limpet -->
<g id="node3" class="node">
<title>Limpet</title>
<ellipse fill="lightyellow" stroke="black" cx="44.52" cy="-147.13" rx="36.29" ry="18"/>
<text text-anchor="middle" x="44.52" y="-143.43" font-family="Times,serif" font-size="14.00">Limpet</text>
</g>
<!-- Dogwhelk&#45;&gt;Limpet -->
<g id="edge2" class="edge">
<title>Dogwhelk&#45;&gt;Limpet</title>
<path fill="none" stroke="red" stroke-width="2" d="M57.37,-205.54C55.38,-196.48 52.92,-185.32 50.7,-175.19"/>
<polygon fill="red" stroke="red" stroke-width="2" points="54.05,-174.15 48.48,-165.14 47.21,-175.66 54.05,-174.15"/>
<text text-anchor="middle" x="48.03" y="-194.16" font-family="Times,serif" font-size="14.00">&#45;2</text>
</g>
<!-- Periwinkle -->
<g id="node4" class="node">
<title>Periwinkle</title>
<ellipse fill="lightyellow" stroke="black" cx="83.7" cy="-158.87" rx="48.99" ry="18"/>
<text text-anchor="middle" x="83.7" y="-155.17" font-family="Times,serif" font-size="14.00">Periwinkle</text>
</g>
<!-- Dogwhelk&#45;&gt;Periwinkle -->
<g id="edge3" class="edge">
<title>Dogwhelk&#45;&gt;Periwinkle</title>
<path fill="none" stroke="red" stroke-width="2" d="M67.58,-205.63C69.62,-199.73 71.93,-193.03 74.15,-186.59"/>
<polygon fill="red" stroke="red" stroke-width="2" points="77.56,-187.42 77.51,-176.83 70.94,-185.14 77.56,-187.42"/>
<text text-anchor="middle" x="64.87" y="-184.91" font-family="Times,serif" font-size="14.00">&#45;2</text>
</g>
<!-- Barnacle -->
<g id="node5" class="node">
<title>Barnacle</title>
<ellipse fill="lightyellow" stroke="black" cx="42.25" cy="-295.2" rx="42.49" ry="18"/>
<text text-anchor="middle" x="42.25" y="-291.5" font-family="Times,serif" font-size="14.00">Barnacle</text>
</g>
<!-- Dogwhelk&#45;&gt;Barnacle -->
<g id="edge4" class="edge">
<title>Dogwhelk&#45;&gt;Barnacle</title>
<path fill="none" stroke="red" stroke-width="3" d="M56.54,-241.73C54.49,-249.37 52.06,-258.47 49.79,-266.97"/>
<polygon fill="red" stroke="red" stroke-width="3" points="46.34,-266.34 47.13,-276.91 53.1,-268.15 46.34,-266.34"/>
<text text-anchor="middle" x="47.16" y="-258.15" font-family="Times,serif" font-size="14.00">&#45;3</text>
</g>
<!-- Topshell&#45;&gt;Limpet -->
<g id="edge5" class="edge">
<title>Topshell&#45;&gt;Limpet</title>
<path fill="none" stroke="red" d="M95.44,-155.8C93.61,-155.15 91.73,-154.51 89.83,-153.89"/>
<polygon fill="red" stroke="red" points="90.79,-150.52 80.21,-150.95 88.75,-157.22 90.79,-150.52"/>
<text text-anchor="middle" x="86.64" y="-143.65" font-family="Times,serif" font-size="14.00">&#45;1</text>
</g>
<!-- Topshell&#45;&gt;Periwinkle -->
<g id="edge6" class="edge">
<title>Topshell&#45;&gt;Periwinkle</title>
<path fill="none" stroke="red" d="M94.76,-156.05C94.72,-156.04 94.67,-156.04 94.63,-156.03"/>
<polygon fill="red" stroke="red" points="104.83,-153.68 94.5,-156.02 104.04,-160.63 104.83,-153.68"/>
<text text-anchor="middle" x="88.7" y="-159.84" font-family="Times,serif" font-size="14.00">&#45;1</text>
</g>
<!-- Green_Algae -->
<g id="node6" class="node">
<title>Green_Algae</title>
<ellipse fill="lightyellow" stroke="black" cx="126.3" cy="-99.75" rx="55.49" ry="18"/>
<text text-anchor="middle" x="126.3" y="-96.05" font-family="Times,serif" font-size="14.00">Green Algae</text>
</g>
<!-- Topshell&#45;&gt;Green_Algae -->
<g id="edge7" class="edge">
<title>Topshell&#45;&gt;Green_Algae</title>
<path fill="none" stroke="red" stroke-width="3" d="M122.06,-152.07C122.65,-144.81 123.34,-136.28 124,-128.23"/>
<polygon fill="red" stroke="red" stroke-width="3" points="127.5,-128.33 124.82,-118.08 120.52,-127.77 127.5,-128.33"/>
<text text-anchor="middle" x="117.03" y="-128.95" font-family="Times,serif" font-size="14.00">&#45;3</text>
</g>
<!-- Biofilm -->
<g id="node7" class="node">
<title>Biofilm</title>
<ellipse fill="lightyellow" stroke="black" cx="64.71" cy="-94.97" rx="38.19" ry="18"/>
<text text-anchor="middle" x="64.71" y="-91.27" font-family="Times,serif" font-size="14.00">Biofilm</text>
</g>
<!-- Topshell&#45;&gt;Biofilm -->
<g id="edge8" class="edge">
<title>Topshell&#45;&gt;Biofilm</title>
<path fill="none" stroke="red" stroke-width="3" d="M107.63,-152.77C100.45,-143.1 91.41,-130.92 83.47,-120.24"/>
<polygon fill="red" stroke="red" stroke-width="3" points="86.18,-118.01 77.4,-112.07 80.56,-122.18 86.18,-118.01"/>
<text text-anchor="middle" x="89.55" y="-125.3" font-family="Times,serif" font-size="14.00">&#45;3</text>
</g>
<!-- Limpet&#45;&gt;Topshell -->
<g id="edge9" class="edge">
<title>Limpet&#45;&gt;Topshell</title>
<path fill="none" stroke="red" stroke-width="2" d="M67.99,-160.95C68.87,-161.26 69.75,-161.58 70.65,-161.89"/>
<polygon fill="red" stroke="red" stroke-width="2" points="69.92,-165.34 80.52,-165.11 72.09,-158.68 69.92,-165.34"/>
<text text-anchor="middle" x="63.32" y="-165.22" font-family="Times,serif" font-size="14.00">&#45;2</text>
</g>
<!-- Limpet&#45;&gt;Periwinkle -->
<g id="edge10" class="edge">
<title>Limpet&#45;&gt;Periwinkle</title>
<path fill="none" stroke="red" stroke-width="2" d="M68.14,-160.96C68.2,-160.98 68.26,-160.99 68.32,-161"/>
<polygon fill="red" stroke="red" stroke-width="2" points="58.01,-162.54 68.5,-161.04 59.36,-155.67 58.01,-162.54"/>
<text text-anchor="middle" x="62.23" y="-149.78" font-family="Times,serif" font-size="14.00">&#45;2</text>
</g>
<!-- Limpet&#45;&gt;Green_Algae -->
<g id="edge11" class="edge">
<title>Limpet&#45;&gt;Green_Algae</title>
<path fill="none" stroke="red" stroke-width="4" d="M68.18,-133.43C74.94,-129.51 82.48,-125.14 89.83,-120.88"/>
<polygon fill="red" stroke="red" stroke-width="4" points="92.06,-123.64 98.95,-115.6 88.55,-117.58 92.06,-123.64"/>
<text text-anchor="middle" x="73" y="-115.95" font-family="Times,serif" font-size="14.00">&#45;4</text>
</g>
<!-- Limpet&#45;&gt;Biofilm -->
<g id="edge12" class="edge">
<title>Limpet&#45;&gt;Biofilm</title>
<path fill="none" stroke="red" stroke-width="4" d="M51.47,-129.18C52.33,-126.94 53.23,-124.61 54.14,-122.27"/>
<polygon fill="red" stroke="red" stroke-width="4" points="57.47,-123.36 57.82,-112.77 50.94,-120.84 57.47,-123.36"/>
<text text-anchor="middle" x="46.8" y="-114.53" font-family="Times,serif" font-size="14.00">&#45;4</text>
</g>
<!-- Periwinkle&#45;&gt;Topshell -->
<g id="edge13" class="edge">
<title>Periwinkle&#45;&gt;Topshell</title>
<path fill="none" stroke="red" d="M112.98,-173.28C113.04,-173.28 113.1,-173.28 113.17,-173.28"/>
<polygon fill="red" stroke="red" points="103.35,-176.78 113.35,-173.28 103.35,-169.78 103.35,-176.78"/>
<text text-anchor="middle" x="107.07" y="-177.08" font-family="Times,serif" font-size="14.00">&#45;1</text>
</g>
<!-- Periwinkle&#45;&gt;Limpet -->
<g id="edge14" class="edge">
<title>Periwinkle&#45;&gt;Limpet</title>
<path fill="none" stroke="red" d="M54.86,-144.26C54.78,-144.25 54.69,-144.24 54.61,-144.23"/>
<polygon fill="red" stroke="red" points="64.61,-141.54 54.36,-144.21 64.04,-148.52 64.61,-141.54"/>
<text text-anchor="middle" x="48.73" y="-148.05" font-family="Times,serif" font-size="14.00">&#45;1</text>
</g>
<!-- Periwinkle&#45;&gt;Green_Algae -->
<g id="edge15" class="edge">
<title>Periwinkle&#45;&gt;Green_Algae</title>
<path fill="none" stroke="red" stroke-width="3" d="M96.25,-141.45C99.71,-136.65 103.55,-131.34 107.28,-126.15"/>
<polygon fill="red" stroke="red" stroke-width="3" points="110.39,-127.82 113.4,-117.66 104.71,-123.73 110.39,-127.82"/>
<text text-anchor="middle" x="104.77" y="-122.6" font-family="Times,serif" font-size="14.00">&#45;3</text>
</g>
<!-- Periwinkle&#45;&gt;Biofilm -->
<g id="edge16" class="edge">
<title>Periwinkle&#45;&gt;Biofilm</title>
<path fill="none" stroke="red" stroke-width="3" d="M78.31,-140.73C76.65,-135.15 74.79,-128.88 72.98,-122.8"/>
<polygon fill="red" stroke="red" stroke-width="3" points="76.25,-121.52 70.05,-112.93 69.54,-123.52 76.25,-121.52"/>
<text text-anchor="middle" x="81.65" y="-120.57" font-family="Times,serif" font-size="14.00">&#45;3</text>
</g>
<!-- Green_Algae&#45;&gt;Biofilm -->
<g id="edge17" class="edge">
<title>Green_Algae&#45;&gt;Biofilm</title>
<path fill="none" stroke="red" stroke-width="2" d="M72.51,-95.57C72.43,-95.57 72.36,-95.56 72.29,-95.56"/>
<polygon fill="red" stroke="red" stroke-width="2" points="82.31,-92.83 72.07,-95.54 81.77,-99.81 82.31,-92.83"/>
<text text-anchor="middle" x="66.4" y="-99.36" font-family="Times,serif" font-size="14.00">&#45;2</text>
</g>
<!-- Coralline_Algae -->
<g id="node8" class="node">
<title>Coralline_Algae</title>
<ellipse fill="lightyellow" stroke="black" cx="207.34" cy="-94.8" rx="66.09" ry="18"/>
<text text-anchor="middle" x="207.34" y="-91.1" font-family="Times,serif" font-size="14.00">Coralline Algae</text>
</g>
<!-- Green_Algae&#45;&gt;Coralline_Algae -->
<g id="edge18" class="edge">
<title>Green_Algae&#45;&gt;Coralline_Algae</title>
<path fill="none" stroke="red" stroke-width="3" d="M180.8,-96.42C180.86,-96.42 180.92,-96.41 180.98,-96.41"/>
<polygon fill="red" stroke="red" stroke-width="3" points="171.38,-100.51 181.15,-96.4 170.95,-93.52 171.38,-100.51"/>
<text text-anchor="middle" x="174.89" y="-100.22" font-family="Times,serif" font-size="14.00">&#45;3</text>
</g>
<!-- Fucoid_Algae -->
<g id="node9" class="node">
<title>Fucoid_Algae</title>
<ellipse fill="lightyellow" stroke="black" cx="125.87" cy="-18" rx="57.69" ry="18"/>
<text text-anchor="middle" x="125.87" y="-14.3" font-family="Times,serif" font-size="14.00">Fucoid Algae</text>
</g>
<!-- Green_Algae&#45;&gt;Fucoid_Algae -->
<g id="edge19" class="edge">
<title>Green_Algae&#45;&gt;Fucoid_Algae</title>
<path fill="none" stroke="red" d="M126.21,-81.61C126.15,-71.24 126.08,-58 126.02,-46.29"/>
<polygon fill="red" stroke="red" points="129.52,-46.07 125.97,-36.09 122.52,-46.11 129.52,-46.07"/>
<text text-anchor="middle" x="120.11" y="-67.75" font-family="Times,serif" font-size="14.00">&#45;1</text>
</g>
</g>
</svg>
