<?xml version="1.0" encoding="UTF-8" standalone="no"?>
<!DOCTYPE svg PUBLIC "-//W3C//DTD SVG 1.1//EN"
 "http://www.w3.org/Graphics/SVG/1.1/DTD/svg11.dtd">
<!-- Generated by graphviz version 2.50.0 (20211204.2007)
 -->
<!-- Pages: 1 -->
<svg width="407pt" height="520pt"
 viewBox="0.00 0.00 407.41 520.33" xmlns="http://www.w3.org/2000/svg" xmlns:xlink="http://www.w3.org/1999/xlink">
<g id="graph0" class="graph" transform="scale(1 1) rotate(0) translate(4 516.33)">
<polygon fill="white" stroke="transparent" points="-4,4 -4,-516.33 403.41,-516.33 403.41,4 -4,4"/>
<text text-anchor="middle" x="199.7" y="-7.8" font-family="Times,serif" font-size="14.00">Coastal Food Web</text>
<!-- n1 -->
<g id="node1" class="node">
<title>n1</title>
<ellipse fill="none" stroke="black" cx="327.38" cy="-494.33" rx="36.29" ry="18"/>
<text text-anchor="middle" x="327.38" y="-490.63" font-family="Times,serif" font-size="14.00">sp:kelp</text>
</g>
<!-- n2 -->
<g id="node2" class="node">
<title>n2</title>
<ellipse fill="none" stroke="black" cx="208.56" cy="-414.53" rx="83.39" ry="18"/>
<text text-anchor="middle" x="208.56" y="-410.83" font-family="Times,serif" font-size="14.00">sp:common_starfish</text>
</g>
<!-- n4 -->
<g id="node4" class="node">
<title>n4</title>
<ellipse fill="none" stroke="black" cx="290.72" cy="-426.41" rx="59.29" ry="18"/>
<text text-anchor="middle" x="290.72" y="-422.71" font-family="Times,serif" font-size="14.00">sp:sea_urchin</text>
</g>
<!-- n2&#45;&gt;n4 -->
<g id="edge11" class="edge">
<title>n2&#45;&gt;n4</title>
<path fill="none" stroke="black" d="M277.88,-424.56C277.94,-424.57 278,-424.57 278.06,-424.58"/>
<polygon fill="black" stroke="black" points="267.84,-426.64 278.24,-424.61 268.85,-419.71 267.84,-426.64"/>
<text text-anchor="middle" x="241.97" y="-428.37" font-family="Times,serif" font-size="14.00">eco:feeds_on</text>
</g>
<!-- n8 -->
<g id="node8" class="node">
<title>n8</title>
<ellipse fill="none" stroke="black" cx="164.83" cy="-346.12" rx="65.79" ry="18"/>
<text text-anchor="middle" x="164.83" y="-342.42" font-family="Times,serif" font-size="14.00">sp:blue_mussel</text>
</g>
<!-- n2&#45;&gt;n8 -->
<g id="edge10" class="edge">
<title>n2&#45;&gt;n8</title>
<path fill="none" stroke="black" d="M197.07,-396.56C192.44,-389.31 186.99,-380.8 181.92,-372.85"/>
<polygon fill="black" stroke="black" points="184.73,-370.76 176.4,-364.21 178.83,-374.53 184.73,-370.76"/>
<text text-anchor="middle" x="153.49" y="-373.5" font-family="Times,serif" font-size="14.00">eco:feeds_on</text>
</g>
<!-- n3 -->
<g id="node3" class="node">
<title>n3</title>
<ellipse fill="none" stroke="black" cx="198.77" cy="-265.11" rx="59.59" ry="18"/>
<text text-anchor="middle" x="198.77" y="-261.41" font-family="Times,serif" font-size="14.00">sp:shore_crab</text>
</g>
<!-- n5 -->
<g id="node5" class="node">
<title>n5</title>
<ellipse fill="none" stroke="black" cx="121.29" cy="-273.97" rx="50.89" ry="18"/>
<text text-anchor="middle" x="121.29" y="-270.27" font-family="Times,serif" font-size="14.00">sp:barnacle</text>
</g>
<!-- n3&#45;&gt;n5 -->
<g id="edge8" class="edge">
<title>n3&#45;&gt;n5</title>
<path fill="none" stroke="black" d="M142.46,-271.55C142.42,-271.55 142.37,-271.56 142.32,-271.56"/>
<polygon fill="black" stroke="black" points="151.72,-266.96 142.18,-271.58 152.52,-273.92 151.72,-266.96"/>
<text text-anchor="middle" x="178.39" y="-275.36" font-family="Times,serif" font-size="14.00">eco:feeds_on</text>
</g>
<!-- n3&#45;&gt;n8 -->
<g id="edge7" class="edge">
<title>n3&#45;&gt;n8</title>
<path fill="none" stroke="black" d="M191.24,-283.09C186.85,-293.58 181.22,-307.02 176.28,-318.8"/>
<polygon fill="black" stroke="black" points="172.98,-317.62 172.35,-328.2 179.44,-320.33 172.98,-317.62"/>
<text text-anchor="middle" x="219.76" y="-304.75" font-family="Times,serif" font-size="14.00">eco:feeds_on</text>
</g>
<!-- n14 -->
<g id="node14" class="node">
<title>n14</title>
<ellipse fill="none" stroke="black" cx="279.97" cy="-282.21" rx="79.89" ry="18"/>
<text text-anchor="middle" x="279.97" y="-278.51" font-family="Times,serif" font-size="14.00">sp:common_limpet</text>
</g>
<!-- n3&#45;&gt;n14 -->
<g id="edge9" class="edge">
<title>n3&#45;&gt;n14</title>
<path fill="none" stroke="black" d="M247.88,-275.45C247.95,-275.47 248.01,-275.48 248.08,-275.5"/>
<polygon fill="black" stroke="black" points="237.77,-276.9 248.28,-275.54 239.22,-270.05 237.77,-276.9"/>
<text text-anchor="middle" x="283.98" y="-264.28" font-family="Times,serif" font-size="14.00">eco:feeds_on</text>
</g>
<!-- n4&#45;&gt;n1 -->
<g id="edge12" class="edge">
<title>n4&#45;&gt;n1</title>
<path fill="none" stroke="black" d="M300.35,-444.26C304.25,-451.49 308.84,-459.99 313.12,-467.91"/>
<polygon fill="black" stroke="black" points="310.11,-469.7 317.94,-476.84 316.27,-466.37 310.11,-469.7"/>
<text text-anchor="middle" x="270.74" y="-459.88" font-family="Times,serif" font-size="14.00">eco:feeds_on</text>
</g>
<!-- n10 -->
<g id="node10" class="node">
<title>n10</title>
<ellipse fill="none" stroke="black" cx="324.66" cy="-350.36" rx="74.99" ry="18"/>
<text text-anchor="middle" x="324.66" y="-346.66" font-family="Times,serif" font-size="14.00">sp:coralline_algae</text>
</g>
<!-- n4&#45;&gt;n10 -->
<g id="edge13" class="edge">
<title>n4&#45;&gt;n10</title>
<path fill="none" stroke="black" d="M298.76,-408.39C302.83,-399.27 307.86,-388 312.4,-377.83"/>
<polygon fill="black" stroke="black" points="315.68,-379.07 316.56,-368.52 309.29,-376.22 315.68,-379.07"/>
<text text-anchor="middle" x="269.58" y="-381.91" font-family="Times,serif" font-size="14.00">eco:feeds_on</text>
</g>
<!-- n11 -->
<g id="node11" class="node">
<title>n11</title>
<ellipse fill="none" stroke="black" cx="82.49" cy="-325.09" rx="71.49" ry="18"/>
<text text-anchor="middle" x="82.49" y="-321.39" font-family="Times,serif" font-size="14.00">sp:phytoplankton</text>
</g>
<!-- n5&#45;&gt;n11 -->
<g id="edge15" class="edge">
<title>n5&#45;&gt;n11</title>
<path fill="none" stroke="black" d="M107.94,-291.56C106.13,-293.94 104.24,-296.43 102.35,-298.92"/>
<polygon fill="black" stroke="black" points="99.26,-297.21 96,-307.29 104.83,-301.44 99.26,-297.21"/>
<text text-anchor="middle" x="141.14" y="-299.04" font-family="Times,serif" font-size="14.00">eco:feeds_on</text>
</g>
<!-- n12 -->
<g id="node12" class="node">
<title>n12</title>
<ellipse fill="none" stroke="black" cx="64.34" cy="-241.62" rx="64.19" ry="18"/>
<text text-anchor="middle" x="64.34" y="-237.92" font-family="Times,serif" font-size="14.00">sp:zooplankton</text>
</g>
<!-- n5&#45;&gt;n12 -->
<g id="edge16" class="edge">
<title>n5&#45;&gt;n12</title>
<path fill="none" stroke="black" d="M94.15,-258.55C94.04,-258.49 93.92,-258.42 93.81,-258.36"/>
<polygon fill="black" stroke="black" points="103.2,-259.67 92.78,-257.77 99.74,-265.75 103.2,-259.67"/>
<text text-anchor="middle" x="57.98" y="-262.25" font-family="Times,serif" font-size="14.00">eco:feeds_on</text>
</g>
<!-- n6 -->
<g id="node6" class="node">
<title>n6</title>
<ellipse fill="none" stroke="black" cx="181.93" cy="-183.17" rx="63.89" ry="18"/>
<text text-anchor="middle" x="181.93" y="-179.47" font-family="Times,serif" font-size="14.00">sp:atlantic_cod</text>
</g>
<!-- n6&#45;&gt;n3 -->
<g id="edge5" class="edge">
<title>n6&#45;&gt;n3</title>
<path fill="none" stroke="black" d="M185.66,-201.35C187.82,-211.86 190.58,-225.29 193.02,-237.11"/>
<polygon fill="black" stroke="black" points="189.6,-237.89 195.04,-246.98 196.46,-236.48 189.6,-237.89"/>
<text text-anchor="middle" x="153.34" y="-208.03" font-family="Times,serif" font-size="14.00">eco:feeds_on</text>
</g>
<!-- n7 -->
<g id="node7" class="node">
<title>n7</title>
<ellipse fill="none" stroke="black" cx="100.76" cy="-167.37" rx="46.29" ry="18"/>
<text text-anchor="middle" x="100.76" y="-163.67" font-family="Times,serif" font-size="14.00">sp:herring</text>
</g>
<!-- n6&#45;&gt;n7 -->
<g id="edge4" class="edge">
<title>n6&#45;&gt;n7</title>
<path fill="none" stroke="black" d="M129.15,-172.9C129.09,-172.89 129.03,-172.87 128.97,-172.86"/>
<polygon fill="black" stroke="black" points="139.27,-171.31 128.78,-172.83 137.93,-178.18 139.27,-171.31"/>
<text text-anchor="middle" x="165.06" y="-161.68" font-family="Times,serif" font-size="14.00">eco:feeds_on</text>
</g>
<!-- n7&#45;&gt;n12 -->
<g id="edge6" class="edge">
<title>n7&#45;&gt;n12</title>
<path fill="none" stroke="black" d="M91.94,-185.35C87.68,-194.04 82.47,-204.66 77.73,-214.32"/>
<polygon fill="black" stroke="black" points="74.47,-213.03 73.2,-223.55 80.75,-216.12 74.47,-213.03"/>
<text text-anchor="middle" x="48.84" y="-203.63" font-family="Times,serif" font-size="14.00">eco:feeds_on</text>
</g>
<!-- n8&#45;&gt;n11 -->
<g id="edge14" class="edge">
<title>n8&#45;&gt;n11</title>
<path fill="none" stroke="black" d="M116.46,-333.77C116.39,-333.75 116.32,-333.73 116.25,-333.71"/>
<polygon fill="black" stroke="black" points="126.6,-332.75 116.04,-333.66 124.86,-339.53 126.6,-332.75"/>
<text text-anchor="middle" x="152.35" y="-322.54" font-family="Times,serif" font-size="14.00">eco:feeds_on</text>
</g>
<!-- n9 -->
<g id="node9" class="node">
<title>n9</title>
<ellipse fill="none" stroke="black" cx="156.22" cy="-41" rx="36.29" ry="18"/>
<text text-anchor="middle" x="156.22" y="-37.3" font-family="Times,serif" font-size="14.00">sp:orca</text>
</g>
<!-- n13 -->
<g id="node13" class="node">
<title>n13</title>
<ellipse fill="none" stroke="black" cx="152.88" cy="-115.75" rx="54.69" ry="18"/>
<text text-anchor="middle" x="152.88" y="-112.05" font-family="Times,serif" font-size="14.00">sp:grey_seal</text>
</g>
<!-- n9&#45;&gt;n13 -->
<g id="edge1" class="edge">
<title>n9&#45;&gt;n13</title>
<path fill="none" stroke="black" d="M155.41,-59.1C155.03,-67.57 154.57,-77.87 154.15,-87.35"/>
<polygon fill="black" stroke="black" points="150.64,-87.42 153.7,-97.56 157.64,-87.73 150.64,-87.42"/>
<text text-anchor="middle" x="118.78" y="-77.02" font-family="Times,serif" font-size="14.00">eco:feeds_on</text>
</g>
<!-- n12&#45;&gt;n11 -->
<g id="edge17" class="edge">
<title>n12&#45;&gt;n11</title>
<path fill="none" stroke="black" d="M68.28,-259.73C70.66,-270.67 73.74,-284.84 76.42,-297.18"/>
<polygon fill="black" stroke="black" points="73.02,-297.99 78.56,-307.01 79.86,-296.5 73.02,-297.99"/>
<text text-anchor="middle" x="36.35" y="-282.26" font-family="Times,serif" font-size="14.00">eco:feeds_on</text>
</g>
<!-- n13&#45;&gt;n6 -->
<g id="edge2" class="edge">
<title>n13&#45;&gt;n6</title>
<path fill="none" stroke="black" d="M160.67,-133.82C163.53,-140.47 166.85,-148.16 169.99,-155.47"/>
<polygon fill="black" stroke="black" points="166.95,-157.25 174.12,-165.05 173.38,-154.48 166.95,-157.25"/>
<text text-anchor="middle" x="201.33" y="-148.44" font-family="Times,serif" font-size="14.00">eco:feeds_on</text>
</g>
<!-- n13&#45;&gt;n7 -->
<g id="edge3" class="edge">
<title>n13&#45;&gt;n7</title>
<path fill="none" stroke="black" d="M135.53,-132.94C132.15,-136.28 128.55,-139.85 125,-143.36"/>
<polygon fill="black" stroke="black" points="122.51,-140.91 117.86,-150.43 127.43,-145.88 122.51,-140.91"/>
<text text-anchor="middle" x="94.27" y="-141.95" font-family="Times,serif" font-size="14.00">eco:feeds_on</text>
</g>
<!-- n14&#45;&gt;n10 -->
<g id="edge18" class="edge">
<title>n14&#45;&gt;n10</title>
<path fill="none" stroke="black" d="M291.71,-300.12C296.45,-307.34 302.01,-315.82 307.2,-323.74"/>
<polygon fill="black" stroke="black" points="304.43,-325.89 312.84,-332.34 310.29,-322.06 304.43,-325.89"/>
<text text-anchor="middle" x="335.46" y="-315.73" font-family="Times,serif" font-size="14.00">eco:feeds_on</text>
</g>
</g>
</svg>
