<?xml version="1.0" encoding="UTF-8" standalone="no"?>
<!DOCTYPE svg PUBLIC "-//W3C//DTD SVG 1.1//EN"
 "http://www.w3.org/Graphics/SVG/1.1/DTD/svg11.dtd">
<!-- Generated by graphviz version 2.50.0 (20211204.2007)
 -->
<!-- Pages: 1 -->
<svg width="402pt" height="528pt"
 viewBox="0.00 0.00 401.77 528.30" xmlns="http://www.w3.org/2000/svg" xmlns:xlink="http://www.w3.org/1999/xlink">
<g id="graph0" class="graph" transform="scale(1 1) rotate(0) translate(4 524.3)">
<polygon fill="white" stroke="transparent" points="-4,4 -4,-524.3 397.77,-524.3 397.77,4 -4,4"/>
<text text-anchor="middle" x="196.89" y="-7.8" font-family="Times,serif" font-size="14.00">Coastal Food Web</text>
<!-- n1 -->
<g id="node1" class="node">
<title>n1</title>
<ellipse fill="none" stroke="black" cx="78.43" cy="-502.3" rx="36.29" ry="18"/>
<text text-anchor="middle" x="78.43" y="-498.6" font-family="Times,serif" font-size="14.00">sp:kelp</text>
</g>
<!-- n2 -->
<g id="node2" class="node">
<title>n2</title>
<ellipse fill="none" stroke="black" cx="113.54" cy="-433.65" rx="59.29" ry="18"/>
<text text-anchor="middle" x="113.54" y="-429.95" font-family="Times,serif" font-size="14.00">sp:sea_urchin</text>
</g>
<!-- n2&#45;&gt;n1 -->
<g id="edge12" class="edge">
<title>n2&#45;&gt;n1</title>
<path fill="none" stroke="black" d="M104.31,-451.69C100.57,-458.99 96.18,-467.59 92.08,-475.6"/>
<polygon fill="black" stroke="black" points="88.91,-474.12 87.47,-484.62 95.14,-477.31 88.91,-474.12"/>
<text text-anchor="middle" x="62.2" y="-467.44" font-family="Times,serif" font-size="14.00">eco:feeds_on</text>
</g>
<!-- n7 -->
<g id="node7" class="node">
<title>n7</title>
<ellipse fill="none" stroke="black" cx="74.74" cy="-359.85" rx="74.99" ry="18"/>
<text text-anchor="middle" x="74.74" y="-356.15" font-family="Times,serif" font-size="14.00">sp:coralline_algae</text>
</g>
<!-- n2&#45;&gt;n7 -->
<g id="edge13" class="edge">
<title>n2&#45;&gt;n7</title>
<path fill="none" stroke="black" d="M104.15,-415.78C99.56,-407.05 93.94,-396.37 88.85,-386.68"/>
<polygon fill="black" stroke="black" points="91.93,-385.03 84.18,-377.8 85.74,-388.28 91.93,-385.03"/>
<text text-anchor="middle" x="60.5" y="-390.03" font-family="Times,serif" font-size="14.00">eco:feeds_on</text>
</g>
<!-- n3 -->
<g id="node3" class="node">
<title>n3</title>
<ellipse fill="none" stroke="black" cx="231.38" cy="-114.69" rx="54.69" ry="18"/>
<text text-anchor="middle" x="231.38" y="-110.99" font-family="Times,serif" font-size="14.00">sp:grey_seal</text>
</g>
<!-- n9 -->
<g id="node9" class="node">
<title>n9</title>
<ellipse fill="none" stroke="black" cx="206.54" cy="-183.95" rx="63.89" ry="18"/>
<text text-anchor="middle" x="206.54" y="-180.25" font-family="Times,serif" font-size="14.00">sp:atlantic_cod</text>
</g>
<!-- n3&#45;&gt;n9 -->
<g id="edge2" class="edge">
<title>n3&#45;&gt;n9</title>
<path fill="none" stroke="black" d="M224.85,-132.89C222.31,-139.99 219.33,-148.29 216.52,-156.11"/>
<polygon fill="black" stroke="black" points="213.19,-155.04 213.11,-165.64 219.78,-157.41 213.19,-155.04"/>
<text text-anchor="middle" x="184.69" y="-148.3" font-family="Times,serif" font-size="14.00">eco:feeds_on</text>
</g>
<!-- n10 -->
<g id="node10" class="node">
<title>n10</title>
<ellipse fill="none" stroke="black" cx="286.48" cy="-162.77" rx="46.29" ry="18"/>
<text text-anchor="middle" x="286.48" y="-159.07" font-family="Times,serif" font-size="14.00">sp:herring</text>
</g>
<!-- n3&#45;&gt;n10 -->
<g id="edge3" class="edge">
<title>n3&#45;&gt;n10</title>
<path fill="none" stroke="black" d="M250.96,-131.78C253.79,-134.24 256.74,-136.82 259.68,-139.38"/>
<polygon fill="black" stroke="black" points="257.5,-142.12 267.33,-146.06 262.1,-136.85 257.5,-142.12"/>
<text text-anchor="middle" x="219.32" y="-139.38" font-family="Times,serif" font-size="14.00">eco:feeds_on</text>
</g>
<!-- n4 -->
<g id="node4" class="node">
<title>n4</title>
<ellipse fill="none" stroke="black" cx="233.99" cy="-345.55" rx="65.79" ry="18"/>
<text text-anchor="middle" x="233.99" y="-341.85" font-family="Times,serif" font-size="14.00">sp:blue_mussel</text>
</g>
<!-- n12 -->
<g id="node12" class="node">
<title>n12</title>
<ellipse fill="none" stroke="black" cx="314.72" cy="-319.04" rx="71.49" ry="18"/>
<text text-anchor="middle" x="314.72" y="-315.34" font-family="Times,serif" font-size="14.00">sp:phytoplankton</text>
</g>
<!-- n4&#45;&gt;n12 -->
<g id="edge14" class="edge">
<title>n4&#45;&gt;n12</title>
<path fill="none" stroke="black" d="M276.24,-331.67C276.32,-331.65 276.4,-331.62 276.47,-331.6"/>
<polygon fill="black" stroke="black" points="268.29,-337.97 276.7,-331.52 266.11,-331.32 268.29,-337.97"/>
<text text-anchor="middle" x="312.36" y="-335.44" font-family="Times,serif" font-size="14.00">eco:feeds_on</text>
</g>
<!-- n5 -->
<g id="node5" class="node">
<title>n5</title>
<ellipse fill="none" stroke="black" cx="272.6" cy="-270.58" rx="50.89" ry="18"/>
<text text-anchor="middle" x="272.6" y="-266.88" font-family="Times,serif" font-size="14.00">sp:barnacle</text>
</g>
<!-- n5&#45;&gt;n12 -->
<g id="edge15" class="edge">
<title>n5&#45;&gt;n12</title>
<path fill="none" stroke="black" d="M287.57,-287.8C289.22,-289.7 290.93,-291.67 292.65,-293.65"/>
<polygon fill="black" stroke="black" points="290.03,-295.97 299.23,-301.22 295.31,-291.37 290.03,-295.97"/>
<text text-anchor="middle" x="254.11" y="-294.53" font-family="Times,serif" font-size="14.00">eco:feeds_on</text>
</g>
<!-- n13 -->
<g id="node13" class="node">
<title>n13</title>
<ellipse fill="none" stroke="black" cx="327.38" cy="-234.6" rx="64.19" ry="18"/>
<text text-anchor="middle" x="327.38" y="-230.9" font-family="Times,serif" font-size="14.00">sp:zooplankton</text>
</g>
<!-- n5&#45;&gt;n13 -->
<g id="edge16" class="edge">
<title>n5&#45;&gt;n13</title>
<path fill="none" stroke="black" d="M296.79,-254.69C296.9,-254.62 297,-254.55 297.11,-254.48"/>
<polygon fill="black" stroke="black" points="295.54,-259.71 301.97,-251.29 291.69,-253.85 295.54,-259.71"/>
<text text-anchor="middle" x="332.95" y="-258.39" font-family="Times,serif" font-size="14.00">eco:feeds_on</text>
</g>
<!-- n6 -->
<g id="node6" class="node">
<title>n6</title>
<ellipse fill="none" stroke="black" cx="218.11" cy="-41" rx="36.29" ry="18"/>
<text text-anchor="middle" x="218.11" y="-37.3" font-family="Times,serif" font-size="14.00">sp:orca</text>
</g>
<!-- n6&#45;&gt;n3 -->
<g id="edge1" class="edge">
<title>n6&#45;&gt;n3</title>
<path fill="none" stroke="black" d="M221.39,-59.22C222.89,-67.52 224.69,-77.53 226.35,-86.75"/>
<polygon fill="black" stroke="black" points="222.92,-87.46 228.14,-96.69 229.81,-86.22 222.92,-87.46"/>
<text text-anchor="middle" x="187.87" y="-76.78" font-family="Times,serif" font-size="14.00">eco:feeds_on</text>
</g>
<!-- n8 -->
<g id="node8" class="node">
<title>n8</title>
<ellipse fill="none" stroke="black" cx="194.69" cy="-416.7" rx="83.39" ry="18"/>
<text text-anchor="middle" x="194.69" y="-413" font-family="Times,serif" font-size="14.00">sp:common_starfish</text>
</g>
<!-- n8&#45;&gt;n2 -->
<g id="edge11" class="edge">
<title>n8&#45;&gt;n2</title>
<path fill="none" stroke="black" d="M134.44,-429.29C134.39,-429.29 134.34,-429.3 134.3,-429.31"/>
<polygon fill="black" stroke="black" points="143.23,-423.87 134.16,-429.34 144.66,-430.72 143.23,-423.87"/>
<text text-anchor="middle" x="170.37" y="-433.1" font-family="Times,serif" font-size="14.00">eco:feeds_on</text>
</g>
<!-- n8&#45;&gt;n4 -->
<g id="edge10" class="edge">
<title>n8&#45;&gt;n4</title>
<path fill="none" stroke="black" d="M204.61,-398.75C208.99,-390.8 214.25,-381.29 219.09,-372.52"/>
<polygon fill="black" stroke="black" points="222.17,-374.19 223.94,-363.75 216.04,-370.81 222.17,-374.19"/>
<text text-anchor="middle" x="247.85" y="-374.43" font-family="Times,serif" font-size="14.00">eco:feeds_on</text>
</g>
<!-- n9&#45;&gt;n10 -->
<g id="edge4" class="edge">
<title>n9&#45;&gt;n10</title>
<path fill="none" stroke="black" d="M253.04,-171.63C253.11,-171.61 253.18,-171.59 253.25,-171.57"/>
<polygon fill="black" stroke="black" points="244.69,-177.47 253.45,-171.52 242.89,-170.7 244.69,-177.47"/>
<text text-anchor="middle" x="217.15" y="-160.4" font-family="Times,serif" font-size="14.00">eco:feeds_on</text>
</g>
<!-- n11 -->
<g id="node11" class="node">
<title>n11</title>
<ellipse fill="none" stroke="black" cx="194.79" cy="-266.84" rx="59.59" ry="18"/>
<text text-anchor="middle" x="194.79" y="-263.14" font-family="Times,serif" font-size="14.00">sp:shore_crab</text>
</g>
<!-- n9&#45;&gt;n11 -->
<g id="edge5" class="edge">
<title>n9&#45;&gt;n11</title>
<path fill="none" stroke="black" d="M203.99,-201.94C202.47,-212.62 200.52,-226.4 198.8,-238.51"/>
<polygon fill="black" stroke="black" points="195.31,-238.22 197.37,-248.61 202.24,-239.2 195.31,-238.22"/>
<text text-anchor="middle" x="165.4" y="-224.03" font-family="Times,serif" font-size="14.00">eco:feeds_on</text>
</g>
<!-- n10&#45;&gt;n13 -->
<g id="edge6" class="edge">
<title>n10&#45;&gt;n13</title>
<path fill="none" stroke="black" d="M296.59,-180.52C301.28,-188.75 306.94,-198.7 312.13,-207.81"/>
<polygon fill="black" stroke="black" points="309.12,-209.59 317.11,-216.55 315.2,-206.13 309.12,-209.59"/>
<text text-anchor="middle" x="340.36" y="-197.97" font-family="Times,serif" font-size="14.00">eco:feeds_on</text>
</g>
<!-- n11&#45;&gt;n4 -->
<g id="edge7" class="edge">
<title>n11&#45;&gt;n4</title>
<path fill="none" stroke="black" d="M203.68,-284.7C208.66,-294.7 214.96,-307.35 220.53,-318.54"/>
<polygon fill="black" stroke="black" points="217.4,-320.1 224.99,-327.49 223.67,-316.98 217.4,-320.1"/>
<text text-anchor="middle" x="176.11" y="-305.42" font-family="Times,serif" font-size="14.00">eco:feeds_on</text>
</g>
<!-- n11&#45;&gt;n5 -->
<g id="edge8" class="edge">
<title>n11&#45;&gt;n5</title>
<path fill="none" stroke="black" d="M254.16,-269.69C254.24,-269.7 254.33,-269.7 254.41,-269.71"/>
<polygon fill="black" stroke="black" points="244.5,-272.73 254.66,-269.72 244.84,-265.74 244.5,-272.73"/>
<text text-anchor="middle" x="290.29" y="-273.5" font-family="Times,serif" font-size="14.00">eco:feeds_on</text>
</g>
<!-- n14 -->
<g id="node14" class="node">
<title>n14</title>
<ellipse fill="none" stroke="black" cx="114.89" cy="-289.02" rx="79.89" ry="18"/>
<text text-anchor="middle" x="114.89" y="-285.32" font-family="Times,serif" font-size="14.00">sp:common_limpet</text>
</g>
<!-- n11&#45;&gt;n14 -->
<g id="edge9" class="edge">
<title>n11&#45;&gt;n14</title>
<path fill="none" stroke="black" d="M150.63,-279.1C150.56,-279.12 150.49,-279.14 150.41,-279.16"/>
<polygon fill="black" stroke="black" points="158.9,-273.17 150.2,-279.22 160.77,-279.91 158.9,-273.17"/>
<text text-anchor="middle" x="114.52" y="-267.93" font-family="Times,serif" font-size="14.00">eco:feeds_on</text>
</g>
<!-- n13&#45;&gt;n12 -->
<g id="edge17" class="edge">
<title>n13&#45;&gt;n12</title>
<path fill="none" stroke="black" d="M324.63,-252.92C322.96,-264.06 320.8,-278.51 318.91,-291.06"/>
<polygon fill="black" stroke="black" points="315.44,-290.63 317.42,-301.04 322.36,-291.67 315.44,-290.63"/>
<text text-anchor="middle" x="357.77" y="-275.79" font-family="Times,serif" font-size="14.00">eco:feeds_on</text>
</g>
<!-- n14&#45;&gt;n7 -->
<g id="edge18" class="edge">
<title>n14&#45;&gt;n7</title>
<path fill="none" stroke="black" d="M104.76,-306.89C100.27,-314.8 94.91,-324.27 89.96,-333"/>
<polygon fill="black" stroke="black" points="86.9,-331.31 85.01,-341.73 92.99,-334.76 86.9,-331.31"/>
<text text-anchor="middle" x="61.36" y="-323.75" font-family="Times,serif" font-size="14.00">eco:feeds_on</text>
</g>
</g>
</svg>
